# xmcd
#
# Track frame offsets: 
#        150
#        12549
#        32545
#        50876
#        73063
#        92582
#        107840
#        129161
#        149320
#        174539
#        194705
#        225992
#
# Disc length: 3264 seconds
#
# Revision: 4
# Processed by: cddbd v1.5.2PL0 Copyright (c) Steve Scherf et al.
# Submitted via: ExactAudioCopy v1.3
#
DISCID=a60cbe0c
DTITLE=Samantha Fish - Black Wind Howlin'
DYEAR=2013
DGENRE=Blues
TTITLE0=Miles To Go
TTITLE1=Kick Around (feat.Mike Zito)
TTITLE2=Go To Hell (w.Paul Thorn)
TTITLE3=Sucker Born (feat.Jumpin' Johnny Sansone)
TTITLE4=Over You
TTITLE5=Who's Been Talking(feat.Jumpin' Johnny Sansone)
TTITLE6=Lay It Down
TTITLE7=Let's Have Some Fun
TTITLE8=Heartbreaker
TTITLE9=Foolin' Me
TTITLE10=Black Wind Howlin'
TTITLE11=Last September
EXTD=Year: 2013\n\n\n\n\n\n                                           
EXTD=       www.samanthafish.com
EXTT0=
EXTT1=
EXTT2=
EXTT3=
EXTT4=
EXTT5=
EXTT6=
EXTT7=
EXTT8=
EXTT9=
EXTT10=
EXTT11=
PLAYORDER=
